<svg xmlns="http://www.w3.org/2000/svg" viewBox="0 0 106.96 14.19"><title>hr</title><g id="Слой_2" data-name="Слой 2"><g id="Режим_изоляции" data-name="Режим изоляции"><path d="M106.81,5.33c-1.91-.06-3.82,0-5.73.05l-1.43.09c-.47,0-1,.05-1.41.11a7,7,0,0,0-2.51.87A19.53,19.53,0,0,0,93.46,8,11.66,11.66,0,0,1,91,9.66a3.08,3.08,0,0,1-1.49.19,8,8,0,0,1-1.46-.25,9.92,9.92,0,0,1-2.73-1.15,6.94,6.94,0,0,1-1.2-.93,3.75,3.75,0,0,1-.92-1.31,2,2,0,0,1-.15-.88c0-.11,0-.26,0-.39a3.94,3.94,0,0,1,.08-.39A2.91,2.91,0,0,1,84,3.18a2,2,0,0,1,.71-.43.91.91,0,0,1,.24,0l.22,0a1.78,1.78,0,0,1,.39.11,2,2,0,0,1,1.11,1.11,3.33,3.33,0,0,1,.24,1.5,4,4,0,0,1-.47,1.43,10.68,10.68,0,0,1-1.73,2.34A10.6,10.6,0,0,1,82.44,11a6,6,0,0,1-2.81.88,7.78,7.78,0,0,1-2.92-.53,8.6,8.6,0,0,1-4.56-3.85A5.82,5.82,0,0,1,71.59,6a4.42,4.42,0,0,1-.12-.81c0-.26,0-.47,0-.76a5.7,5.7,0,0,1,.78-3A4,4,0,0,1,73.32.3,1.31,1.31,0,0,1,74.19,0,1.71,1.71,0,0,1,75,.4a5,5,0,0,1,1.58,2.55,7.63,7.63,0,0,1,.27,1.46,5.92,5.92,0,0,1,0,1.5,5.53,5.53,0,0,1-1.35,2.64,12.7,12.7,0,0,1-4.85,3.16,30.13,30.13,0,0,1-5.55,1.54,62.5,62.5,0,0,1-11.45.94,67.07,67.07,0,0,1-11.46-.83,30.84,30.84,0,0,1-5.62-1.43,15.83,15.83,0,0,1-2.66-1.25,10,10,0,0,1-2.35-1.87,5.73,5.73,0,0,1-1.41-2.74,4.2,4.2,0,0,1-.07-.8c0-.22,0-.48,0-.74A5.48,5.48,0,0,1,30.22,3,4.75,4.75,0,0,1,31.92.43,2.36,2.36,0,0,1,32.66,0l.23,0H33l.11,0a1.08,1.08,0,0,1,.46.22,3.48,3.48,0,0,1,.91,1.28,8.11,8.11,0,0,1,.69,2.87c0,.25,0,.49,0,.74a4.06,4.06,0,0,1-.11.76,5.72,5.72,0,0,1-.55,1.39,9.64,9.64,0,0,1-4.24,4,6.76,6.76,0,0,1-2.87.69,6.4,6.4,0,0,1-2.87-.79A10.3,10.3,0,0,1,22.2,9.39,9.42,9.42,0,0,1,20.38,7a4.12,4.12,0,0,1-.49-1.54,3.05,3.05,0,0,1,.37-1.59,2.23,2.23,0,0,1,1.25-1,1.3,1.3,0,0,1,.85,0,1.78,1.78,0,0,1,.66.46,2.7,2.7,0,0,1,.66,1.36,3.79,3.79,0,0,1,.05.74,1.88,1.88,0,0,1-.18.74,5.61,5.61,0,0,1-2,2.08A11.53,11.53,0,0,1,19,9.45a10,10,0,0,1-1.41.4,4.85,4.85,0,0,1-.75.1,2.88,2.88,0,0,1-.81-.1,7.06,7.06,0,0,1-2.57-1.6,20.26,20.26,0,0,0-2.13-1.72,6,6,0,0,0-2.45-1A27.7,27.7,0,0,0,6,5.37c-1.91,0-3.82,0-5.73.07a.27.27,0,1,1,0-.53h0C2.19,5,4.1,5,6,5,7,5,7.9,4.92,8.9,4.88a6.27,6.27,0,0,1,3,.69,9.87,9.87,0,0,1,2.35,1.84,8.66,8.66,0,0,0,2,1.76,2.19,2.19,0,0,0,.59.19,4.27,4.27,0,0,0,.68,0,6,6,0,0,0,1.38-.2A9.07,9.07,0,0,0,21.47,8a6.74,6.74,0,0,0,1.1-.89A3.43,3.43,0,0,0,23.36,6a2.19,2.19,0,0,0,0-1.34,2.35,2.35,0,0,0-.64-1.15c-.63-.78-1.63-.06-1.81.68a3.49,3.49,0,0,0-.09,1.21,3.7,3.7,0,0,0,.39,1.18,10.52,10.52,0,0,0,3.67,4,5.21,5.21,0,0,0,2.56.84,6,6,0,0,0,2.65-.62,9.09,9.09,0,0,0,4-3.74,5.13,5.13,0,0,0,.48-1.28,3.47,3.47,0,0,0,.08-.66c0-.23,0-.46,0-.69A7.63,7.63,0,0,0,34,1.77a3,3,0,0,0-.75-1,.65.65,0,0,0-.18-.1H33l-.12,0a1.66,1.66,0,0,0-.5.31,4.19,4.19,0,0,0-1.17,2.27A11.5,11.5,0,0,0,31,4.56a6,6,0,0,0,0,.69,3.54,3.54,0,0,0,.07.62,5.16,5.16,0,0,0,1.26,2.25,12.73,12.73,0,0,0,4.55,3,28.1,28.1,0,0,0,5.41,1.64,59.34,59.34,0,0,0,11.36.94A62.45,62.45,0,0,0,65,12.87a28.25,28.25,0,0,0,5.46-1.57,12.27,12.27,0,0,0,4.64-3.08A5,5,0,0,0,76.3,5.81a5.58,5.58,0,0,0,0-1.36A7.18,7.18,0,0,0,76,3.1,4.42,4.42,0,0,0,74.64.85a1.3,1.3,0,0,0-.49-.24A.62.62,0,0,0,73.7.8a2.36,2.36,0,0,0-.62,1.08,8.76,8.76,0,0,0-.31,2.59c0,.2,0,.46,0,.68a5.52,5.52,0,0,0,.09.61,5.67,5.67,0,0,0,.4,1.2A8.49,8.49,0,0,0,77,10.75a5.91,5.91,0,0,0,2.64.69,5.57,5.57,0,0,0,2.63-.75A9.49,9.49,0,0,0,84.47,9a9.12,9.12,0,0,0,1.64-2.27,3.66,3.66,0,0,0,.41-1.28,2.9,2.9,0,0,0-.23-1.3,1.61,1.61,0,0,0-.88-.85.78.78,0,0,0-.54-.05,1.22,1.22,0,0,0-.47.35,2.15,2.15,0,0,0-.48,1.14,2.43,2.43,0,0,0,0,.32c0,.11,0,.2,0,.33a1.62,1.62,0,0,0,.15.51,5.48,5.48,0,0,0,1.76,1.87A10.61,10.61,0,0,0,88.24,9a7.28,7.28,0,0,0,1.34.36,2.92,2.92,0,0,0,1.34,0,3.1,3.1,0,0,0,1.17-.72,12.91,12.91,0,0,0,1-1,9.44,9.44,0,0,1,2.2-2,5.7,5.7,0,0,1,2.92-.83c1,0,1.93.13,2.89.17,1.91.09,3.82.12,5.73.05a.14.14,0,1,1,0,.28Z"/></g></g></svg>